<?xml version="1.0" standalone="no"?><!DOCTYPE svg PUBLIC "-//W3C//DTD SVG 1.1//EN" "http://www.w3.org/Graphics/SVG/1.1/DTD/svg11.dtd"><svg t="1732608002699" class="icon" viewBox="0 0 1024 1024" version="1.1" xmlns="http://www.w3.org/2000/svg" p-id="9494" data-spm-anchor-id="a313x.search_index.0.i19.b1c63a812qGrQR" xmlns:xlink="http://www.w3.org/1999/xlink" width="200" height="200"><path d="M1016.32 232.96c-2.56-17.92-2.56-35.84-5.12-51.2-23.04-110.08-107.52-179.2-225.28-179.2-84.48-2.56-168.96-2.56-250.88-2.56-102.4 0-202.24 0-302.08 2.56C125.44 2.56 43.52 61.44 12.8 158.72 5.12 181.76 0 207.36 2.56 232.96 0 343.04 0 453.12 0 563.2c0 74.24 0 148.48 2.56 222.72 0 138.24 99.84 232.96 235.52 230.4 51.2 0 99.84 2.56 151.04 2.56 130.56 0 261.12 0 391.68-2.56 138.24 2.56 235.52-92.16 235.52-230.4 0-46.08 2.56-89.6 2.56-135.68 0-138.24 0-279.04-2.56-417.28zM2.56 785.92c2.56 0 2.56 0 0 0 2.56 0 2.56 0 0 0 2.56 0 2.56 0 0 0z m665.6-568.32c20.48 12.8 40.96 20.48 66.56 15.36 7.68 0 15.36 0 17.92-5.12 12.8-25.6 28.16-15.36 43.52-5.12 2.56 0 2.56 2.56 5.12 2.56 12.8 7.68 25.6 15.36 0 33.28-12.8 10.24-2.56 35.84-5.12 53.76 0 12.8 0 25.6 2.56 38.4 0 12.8-5.12 20.48-15.36 20.48-10.24 0-23.04 12.8-33.28-5.12-10.24-15.36-48.64-17.92-56.32-2.56-5.12 10.24-15.36 12.8-23.04 15.36-17.92 7.68-25.6 5.12-25.6-17.92 2.56-40.96 0-84.48 0-125.44v-2.56c0-15.36 2.56-28.16 23.04-15.36zM294.4 174.08zM207.36 752.64c-12.8-10.24-12.8-35.84-17.92-56.32 0 0 0-2.56 2.56-2.56 28.16-2.56 58.88-2.56 87.04-5.12 12.8 0 20.48-2.56 20.48-17.92V563.2c0-12.8-5.12-15.36-17.92-15.36-12.8 0-17.92 5.12-17.92 17.92v12.8c0 25.6-23.04 30.72-38.4 30.72-20.48 0-7.68-17.92-10.24-28.16-2.56-10.24 0-20.48 0-28.16v-128-102.4c20.48 0 35.84 10.24 51.2 17.92 23.04 12.8 33.28 5.12 33.28-20.48V238.08 230.4c0-40.96 0-40.96 40.96-33.28 0 0 2.56 0 2.56 2.56 10.24 5.12 20.48 5.12 28.16 17.92v2.56h-2.56c-25.6 5.12-20.48 25.6-20.48 43.52v64c0 7.68-2.56 17.92 7.68 17.92 10.24 2.56 20.48 2.56 25.6-7.68 10.24-20.48 25.6-15.36 40.96-5.12 7.68 5.12 17.92 10.24 28.16 17.92 5.12 17.92-17.92 17.92-15.36 33.28 2.56 46.08-2.56 89.6 2.56 135.68v38.4c-2.56 20.48-23.04 20.48-38.4 25.6-12.8-2.56-15.36-12.8-15.36-20.48 2.56-17.92-10.24-17.92-23.04-17.92-17.92 0-15.36 12.8-15.36 23.04v87.04c0 7.68-2.56 17.92 5.12 20.48 10.24 2.56 20.48 2.56 28.16-2.56 7.68-5.12 2.56-15.36 0-20.48-2.56-12.8-7.68-23.04-12.8-35.84-2.56-5.12-5.12-10.24 0-12.8 5.12-5.12 10.24 0 15.36 2.56 28.16 25.6 51.2 53.76 64 87.04 0 20.48-5.12 38.4-17.92 53.76-7.68 7.68-15.36 12.8-25.6 7.68-10.24-2.56-7.68-12.8-7.68-20.48V716.8c0-15.36-5.12-23.04-23.04-15.36-35.84 12.8-74.24 23.04-110.08 33.28-20.48 5.12-38.4 28.16-53.76 17.92z m619.52-71.68c-2.56 5.12-12.8 5.12-17.92 5.12-43.52 0-87.04 2.56-130.56 0-25.6 0-30.72 7.68-30.72 30.72 2.56 28.16 2.56 58.88 2.56 87.04v5.12c-10.24 5.12-23.04 7.68-33.28 12.8-17.92 7.68-25.6 2.56-25.6-15.36v-2.56c0-33.28 0-66.56 2.56-99.84 0-12.8-2.56-20.48-17.92-20.48-40.96 2.56-81.92 2.56-122.88 2.56v-2.56c-2.56-7.68-7.68-15.36-2.56-23.04h128c5.12 0 15.36 2.56 15.36-7.68 0-17.92 2.56-38.4-2.56-53.76-5.12-10.24-25.6-5.12-38.4-2.56-10.24 0-28.16-10.24-30.72 10.24-2.56 17.92-17.92 20.48-30.72 25.6-2.56 0-2.56 2.56-5.12 2.56-12.8 7.68-15.36-2.56-15.36-15.36v-110.08c5.12-53.76-2.56-110.08-10.24-163.84V250.88c0-48.64 0-48.64 40.96-25.6 30.72 17.92 48.64 12.8 66.56-12.8v-2.56c20.48-2.56 35.84 15.36 53.76 20.48v2.56c-15.36 35.84-10.24 74.24-10.24 110.08 0 17.92-12.8 17.92-25.6 23.04-10.24 5.12-15.36 5.12-23.04-7.68-7.68-15.36-53.76-12.8-58.88 5.12-5.12 12.8-20.48 10.24-28.16 20.48 12.8 5.12 25.6 10.24 40.96 15.36 61.44 7.68 120.32 2.56 181.76 5.12 2.56 0 10.24 0 10.24-2.56 23.04-38.4 46.08-10.24 69.12 0 2.56 2.56 7.68 2.56 10.24 5.12 2.56 2.56 2.56 5.12 2.56 5.12 2.56 5.12 2.56 12.8-7.68 15.36-10.24 5.12-10.24 12.8-7.68 20.48 0 43.52 0 84.48 2.56 128-2.56 12.8 5.12 28.16-15.36 33.28-12.8 2.56-35.84 12.8-38.4 5.12-10.24-35.84-38.4-17.92-56.32-20.48-7.68-2.56-23.04-2.56-23.04 10.24 0 17.92-7.68 38.4 5.12 53.76 12.8 12.8 89.6-2.56 99.84-17.92 7.68-10.24 12.8-25.6 30.72-12.8l33.28 33.28c7.68 5.12 17.92 10.24 12.8 20.48z" fill="#ffffff" p-id="9495"></path><path d="M363.52 524.8c15.36 0 20.48-5.12 20.48-20.48v-125.44c0-12.8-2.56-20.48-17.92-20.48s-20.48 5.12-20.48 20.48v125.44c2.56 15.36 5.12 20.48 17.92 20.48zM281.6 360.96c-12.8 0-17.92 5.12-17.92 17.92v130.56c0 12.8 5.12 15.36 17.92 15.36 12.8 0 17.92-5.12 17.92-17.92v-64-66.56c0-10.24-5.12-15.36-17.92-15.36zM519.68 330.24c38.4 10.24 48.64 0 48.64-38.4v-28.16c0-7.68-5.12-10.24-12.8-12.8-38.4-7.68-48.64 0-48.64 40.96 7.68 10.24-12.8 33.28 12.8 38.4zM693.76 314.88c0 12.8 5.12 15.36 17.92 17.92 38.4 2.56 38.4 2.56 38.4-38.4 0-17.92 7.68-38.4-28.16-38.4-35.84 0-30.72 20.48-30.72 40.96 2.56 2.56 2.56 10.24 2.56 17.92zM686.08 488.96c23.04 2.56 40.96 2.56 35.84-28.16-5.12-35.84 7.68-30.72-43.52-33.28-28.16-2.56-30.72 10.24-30.72 33.28-2.56 30.72 15.36 30.72 38.4 28.16zM693.76 576c25.6 0 28.16-10.24 30.72-30.72 2.56-30.72-12.8-35.84-35.84-30.72-23.04-2.56-43.52-5.12-40.96 28.16 2.56 30.72 0 30.72 46.08 33.28zM555.52 424.96c-20.48 2.56-35.84-2.56-35.84 28.16 0 28.16 5.12 43.52 33.28 35.84 23.04 0 43.52 7.68 43.52-28.16 0-30.72-10.24-38.4-40.96-35.84zM565.76 512c-25.6 0-46.08-7.68-46.08 28.16 0 35.84 17.92 30.72 40.96 33.28 20.48 0 35.84 0 33.28-30.72 0-25.6-5.12-38.4-28.16-30.72z" fill="#ffffff" p-id="9496"></path></svg>